<svg width="156" height="22" viewBox="0 0 156 22" fill="none" xmlns="http://www.w3.org/2000/svg">
<path d="M8.94629 14.5022C8.94629 16.0603 8.66228 17.1431 8.0905 17.778C7.51874 18.4129 6.61244 18.7323 5.3483 18.7323C4.59104 18.729 3.84225 18.5727 3.14674 18.2727C2.51332 18.0126 1.90525 17.6944 1.33027 17.3223L0 20.2514C0.669627 20.7518 1.41217 21.1459 2.20156 21.42C3.28504 21.8171 4.43191 22.0125 5.58557 21.9965C6.7692 22.0332 7.94876 21.8401 9.05909 21.4277C9.90611 21.0991 10.6576 20.5635 11.2451 19.8697C11.7951 19.2022 12.185 18.4174 12.3847 17.5754C12.6072 16.6496 12.7156 15.6998 12.7075 14.7476V0.880859H8.94629V14.5022Z" fill="#304FFE"/>
<path d="M25.6993 18.6019C25.3345 18.6795 24.9644 18.73 24.5922 18.753C24.0984 18.7928 23.6325 18.8166 23.1865 18.8166C21.9559 18.8166 21.0918 18.4509 20.6019 17.7194C20.1121 16.9878 19.8572 15.7712 19.8572 14.0696V5.7207H16.2134V14.6342C16.2044 15.6327 16.3167 16.6285 16.5479 17.6C16.7422 18.4473 17.1186 19.2421 17.651 19.9298C18.1973 20.602 18.9058 21.1246 19.7099 21.4485C20.7243 21.8426 21.8077 22.0292 22.8957 21.9971C24.1385 22.0075 25.38 21.9145 26.6073 21.7189C27.7383 21.528 28.6555 21.3412 29.3591 21.1583V5.73264H25.6993V18.6019Z" fill="#304FFE"/>
<path d="M40.9842 14.2062C40.5503 13.7782 40.0547 13.4198 39.5143 13.1434C38.8111 12.7827 38.0879 12.4636 37.3484 12.1877C36.9024 12.0355 36.4651 11.8581 36.0387 11.6563C35.7341 11.5171 35.4457 11.3442 35.1786 11.1408C34.9737 10.9937 34.8094 10.7957 34.7016 10.5657C34.6089 10.3453 34.5636 10.1074 34.5687 9.86774C34.5547 9.62316 34.6122 9.37987 34.7339 9.16821C34.8555 8.95663 35.0361 8.7861 35.2529 8.67807C35.8048 8.39609 36.418 8.25969 37.0356 8.28146C37.7547 8.27152 38.4725 8.34739 39.1741 8.50753C39.6923 8.62921 40.1986 8.79778 40.6871 9.01118L41.3439 6.03692C40.7334 5.82141 40.1073 5.65435 39.4713 5.53724C38.6103 5.36124 37.734 5.27487 36.8558 5.27947C35.0548 5.31384 33.6291 5.75403 32.5787 6.60004C32.0664 7.00668 31.6572 7.53154 31.3852 8.13095C31.1132 8.73034 30.9863 9.387 31.0149 10.0462C30.9967 10.6952 31.1125 11.341 31.3551 11.9418C31.5725 12.4442 31.8923 12.8943 32.2934 13.2624C32.7171 13.6467 33.1923 13.9685 33.7047 14.2181C34.288 14.5159 34.887 14.7806 35.4992 15.0113C36.3064 15.2822 37.0772 15.6539 37.7941 16.1176C38.0061 16.2612 38.1804 16.455 38.3016 16.6824C38.4229 16.9098 38.4876 17.1638 38.49 17.4224C38.5073 17.6636 38.4547 17.9048 38.3387 18.1161C38.2227 18.3275 38.0483 18.4999 37.8371 18.6121C37.1788 18.887 36.4676 19.0063 35.7572 18.9611C34.9008 18.9732 34.0465 18.872 33.216 18.6597C32.565 18.4873 31.9252 18.2742 31.3003 18.0212L30.6748 21.0867C31.2492 21.306 31.8353 21.4926 32.4302 21.6459C33.5091 21.9071 34.6171 22.0245 35.7259 21.9948C37.7667 21.9948 39.3305 21.6062 40.4173 20.8289C41.5042 20.0516 42.0541 18.9029 42.0672 17.3827C42.0787 16.7649 41.9876 16.1495 41.7974 15.5625C41.6279 15.0553 41.3503 14.5922 40.9842 14.2062Z" fill="#304FFE"/>
<path d="M154.9 14.2105C154.465 13.7831 153.97 13.4247 153.43 13.1471C152.723 12.7853 151.996 12.466 151.253 12.1909C150.808 12.0388 150.372 11.8612 149.947 11.6593C149.641 11.5199 149.351 11.347 149.083 11.1435C148.887 10.9934 148.732 10.7955 148.633 10.5682C148.539 10.348 148.492 10.1099 148.497 9.86994C148.483 9.62543 148.541 9.38237 148.663 9.17087C148.785 8.95936 148.964 8.7886 149.18 8.67966C149.733 8.39852 150.345 8.26212 150.963 8.2829C151.682 8.27266 152.4 8.3486 153.102 8.50905C153.621 8.63027 154.129 8.79892 154.619 9.01292L155.271 6.03729C154.661 5.82116 154.035 5.65402 153.399 5.53737C152.539 5.36112 151.664 5.27471 150.787 5.27948C148.984 5.27948 147.557 5.69872 146.507 6.53719C145.995 6.94469 145.586 7.46991 145.314 8.06943C145.042 8.66896 144.915 9.32563 144.943 9.98502C144.924 10.6348 145.041 11.2812 145.286 11.8815C145.504 12.3831 145.822 12.8331 146.221 13.2026C146.646 13.5854 147.121 13.9072 147.632 14.1589C148.217 14.456 148.818 14.7209 149.431 14.9523C150.24 15.2424 151.01 15.6357 151.721 16.1228C151.934 16.2624 152.11 16.4531 152.233 16.678C152.355 16.903 152.422 17.1551 152.425 17.4122C152.443 17.6541 152.39 17.8958 152.273 18.1075C152.156 18.3191 151.981 18.4912 151.769 18.6025C151.111 18.8783 150.399 18.9977 149.689 18.9516C148.834 18.9638 147.981 18.8625 147.152 18.6501C146.501 18.4783 145.861 18.265 145.236 18.0113L144.606 21.0861C145.179 21.3058 145.764 21.4925 146.358 21.6456C147.438 21.9073 148.547 22.0246 149.657 21.9947C151.698 21.9947 153.262 21.6059 154.349 20.8283C155.435 20.0506 155.985 18.9014 155.998 17.3805C156.012 16.7622 155.92 16.1462 155.729 15.5594C155.556 15.0522 155.272 14.5911 154.9 14.2105Z" fill="#304FFE"/>
<path d="M52.553 18.6868C51.9916 18.8338 51.413 18.9033 50.8331 18.8935C49.8938 18.8935 49.229 18.6283 48.8386 18.0902C48.4483 17.5522 48.2511 16.6593 48.2511 15.4038V9.04831H53.7126V6.0382H48.2511V1.32031H44.6952V15.435C44.6846 16.3622 44.7741 17.2878 44.9619 18.1955C45.1113 18.9406 45.4214 19.6435 45.8702 20.2543C46.3273 20.8399 46.934 21.2887 47.625 21.5527C48.5052 21.8738 49.4375 22.0246 50.3731 21.9971C51.1654 22.0104 51.9558 21.916 52.7231 21.7164C53.2715 21.5665 53.8098 21.3815 54.3349 21.1627L53.7474 18.3008C53.3561 18.4501 52.9575 18.5789 52.553 18.6868Z" fill="#304FFE"/>
<path d="M141.531 18.6868C140.968 18.8338 140.388 18.9033 139.807 18.8935C138.865 18.8935 138.199 18.6283 137.803 18.0902C137.408 17.5522 137.215 16.6593 137.215 15.4038V9.04831H142.693V6.0382H137.215V1.32031H133.654V15.435C133.644 16.3619 133.733 17.2874 133.918 18.1955C134.064 18.9397 134.371 19.6424 134.816 20.2543C135.272 20.8387 135.878 21.2875 136.567 21.5527C137.45 21.8738 138.384 22.0246 139.323 21.9971C140.115 22.0104 140.906 21.916 141.674 21.7164C142.226 21.567 142.766 21.382 143.294 21.1627L142.705 18.3008C142.426 18.4178 142.031 18.5465 141.531 18.6868Z" fill="#304FFE"/>
<path d="M124.677 5.2793C123.759 5.27936 122.848 5.45897 121.997 5.80832C121.12 6.16773 120.328 6.70977 119.672 7.39936C118.962 8.15743 118.411 9.05306 118.05 10.0325C117.621 11.2107 117.414 12.4601 117.439 13.7158C117.426 14.8359 117.587 15.951 117.912 17.0212C118.213 17.9872 118.711 18.8777 119.374 19.6345C120.066 20.4012 120.921 20.9959 121.875 21.3728C123.016 21.8109 124.229 22.0229 125.449 21.9972C125.973 21.9953 126.497 21.9634 127.017 21.9017C127.53 21.8421 128.012 21.7666 128.459 21.6751C128.856 21.595 129.248 21.494 129.635 21.3728C129.916 21.2879 130.19 21.1801 130.454 21.0506L129.98 18.0395C129.425 18.262 128.852 18.435 128.268 18.5566C127.479 18.7235 126.674 18.8048 125.869 18.7992C124.38 18.7992 123.243 18.4492 122.459 17.7491C122.055 17.369 121.729 16.9107 121.502 16.4011C121.274 15.8916 121.149 15.341 121.134 14.7819H131.411C131.411 14.5789 131.442 14.3522 131.454 14.0977C131.466 13.8431 131.454 13.6164 131.454 13.4135C131.454 10.7114 130.854 8.68277 129.655 7.32777C128.49 5.95549 126.821 5.2793 124.677 5.2793ZM121.193 12.0651C121.252 11.5985 121.361 11.1397 121.518 10.6968C121.669 10.2612 121.895 9.85689 122.189 9.50352C122.482 9.15615 122.843 8.87212 123.246 8.66821C123.7 8.44464 124.201 8.33419 124.704 8.34602C125.183 8.33411 125.657 8.43349 126.092 8.63642C126.473 8.82426 126.808 9.09607 127.072 9.43191C127.351 9.78497 127.559 10.1905 127.684 10.6252C127.825 11.0944 127.894 11.5825 127.891 12.073L121.193 12.0651Z" fill="#304FFE"/>
<path d="M99.456 5.72098C97.3986 5.72098 95.8642 6.30487 94.8518 7.47264C93.8393 8.64041 93.3347 10.2538 93.3369 12.3127V22.0007H96.8207V12.3765C96.8161 11.8988 96.8645 11.422 96.9642 10.956C97.0451 10.5496 97.212 10.1675 97.453 9.83881C97.6978 9.52276 98.0144 9.27705 98.3733 9.12456C98.8213 8.93817 99.3003 8.84865 99.7816 8.86125C100.252 8.85783 100.72 8.91003 101.179 9.01684C101.57 9.10567 101.951 9.2395 102.315 9.41587L102.977 6.36339C102.524 6.2024 102.063 6.06917 101.596 5.96438C100.894 5.79696 100.176 5.71528 99.456 5.72098Z" fill="#304FFE"/>
<path d="M91.0344 21.1926C89.7885 21.3912 88.486 21.6373 87.1796 21.7961C85.182 22.0304 83.1527 22.1574 81.1588 21.6452C79.4967 21.2164 78.1103 20.3984 77.7227 18.6116C77.0601 15.5423 78.4065 13.3228 81.7179 12.8264C83.1164 12.616 84.5549 12.6398 85.9768 12.5604L87.4947 12.4889C88.0107 10.3844 86.82 8.71278 84.7264 8.54604C82.8467 8.45371 80.9647 8.67379 79.1574 9.19724C79.0094 9.23297 78.8575 9.26073 78.5976 9.31232C78.5976 8.411 78.5976 7.5613 78.5976 6.71554C78.5976 6.63216 78.7699 6.50112 78.8817 6.48127C81.2268 5.977 83.5879 5.50846 85.9965 5.82214C89.2249 6.24303 90.9346 7.96236 91.0668 11.1667C91.2104 14.4345 91.1069 17.7103 91.1107 20.9861C91.091 21.057 91.0661 21.126 91.0344 21.1926ZM87.5468 14.9388C86.165 14.9388 84.8662 14.915 83.5516 14.9388C83.1376 14.9733 82.7318 15.0781 82.3533 15.2485C81.9385 15.3899 81.585 15.6684 81.3515 16.0376C81.118 16.4069 81.0191 16.8445 81.0712 17.2775C81.1226 18.3218 81.5661 18.9571 82.5611 19.2113C84.227 19.6441 85.8733 19.4256 87.531 19.112L87.5468 14.9388Z" fill="#304FFE"/>
<path d="M73.2072 0.880859H72.4339L66.7307 12.1644L61.2209 0.880859H60.4476H56.9678V7.13864V22.0009H60.4476V7.13864H61.2209L66.6341 17.112L72.4339 7.13864H73.2072V22.0009H76.6871V7.13864V0.880859H73.2072Z" fill="#304FFE"/>
<path d="M107.8 0H104.294V22H107.8V0Z" fill="#304FFE"/>
<path d="M112.779 6.59961H116.563L111.265 13.6396L108.237 12.8574L112.779 6.59961Z" fill="#304FFE"/>
<path d="M113.279 21.5601H117.001L111.286 14.0801L108.237 14.8281L113.279 21.5601Z" fill="#304FFE"/>
<path d="M111.302 12.3203H104.729V15.4003H111.302V12.3203Z" fill="#304FFE"/>
</svg>
